<svg width="13" height="13" viewBox="0 0 13 13" fill="none" xmlns="http://www.w3.org/2000/svg">
<path d="M6.5 13C8.22391 13 9.87721 12.3152 11.0962 11.0962C12.3152 9.87721 13 8.22391 13 6.5C13 4.77609 12.3152 3.12279 11.0962 1.90381C9.87721 0.68482 8.22391 0 6.5 0C4.77609 0 3.12279 0.68482 1.90381 1.90381C0.68482 3.12279 0 4.77609 0 6.5C0 8.22391 0.68482 9.87721 1.90381 11.0962C3.12279 12.3152 4.77609 13 6.5 13ZM5.48438 8.53125H6.09375V6.90625H5.48438C5.14668 6.90625 4.875 6.63457 4.875 6.29688C4.875 5.95918 5.14668 5.6875 5.48438 5.6875H6.70312C7.04082 5.6875 7.3125 5.95918 7.3125 6.29688V8.53125H7.51562C7.85332 8.53125 8.125 8.80293 8.125 9.14062C8.125 9.47832 7.85332 9.75 7.51562 9.75H5.48438C5.14668 9.75 4.875 9.47832 4.875 9.14062C4.875 8.80293 5.14668 8.53125 5.48438 8.53125ZM6.5 3.25C6.71549 3.25 6.92215 3.3356 7.07452 3.48798C7.2269 3.64035 7.3125 3.84701 7.3125 4.0625C7.3125 4.27799 7.2269 4.48465 7.07452 4.63702C6.92215 4.7894 6.71549 4.875 6.5 4.875C6.28451 4.875 6.07785 4.7894 5.92548 4.63702C5.7731 4.48465 5.6875 4.27799 5.6875 4.0625C5.6875 3.84701 5.7731 3.64035 5.92548 3.48798C6.07785 3.3356 6.28451 3.25 6.5 3.25Z" fill="#3871C2"/>
</svg>
