<svg width="20" height="15" viewBox="0 0 20 15" fill="none" xmlns="http://www.w3.org/2000/svg">
<path d="M8.66667 14.9672C9.04167 15.0966 9.44444 14.8275 9.44444 14.4393V1.58696C9.44444 1.44393 9.38889 1.3009 9.27083 1.21236C8.59028 0.6811 7.02778 0 5 0C3.24653 0 1.60764 0.452931 0.628472 0.820725C0.236111 0.970567 0 1.35198 0 1.76405V14.3746C0 14.7799 0.444444 15.0625 0.836806 14.9365C1.93056 14.5789 3.66319 14.1669 5 14.1669C6.17708 14.1669 7.74306 14.6436 8.66667 14.9672ZM11.3333 14.9672C12.2569 14.6436 13.8229 14.1669 15 14.1669C16.3368 14.1669 18.0694 14.5789 19.1632 14.9365C19.5556 15.0659 20 14.7799 20 14.3746V1.76405C20 1.35198 19.7639 0.970567 19.3715 0.824131C18.3924 0.452931 16.7535 0 15 0C12.9722 0 11.4097 0.6811 10.7292 1.21236C10.6146 1.3009 10.5556 1.44393 10.5556 1.58696V14.4393C10.5556 14.8275 10.9618 15.0966 11.3333 14.9672Z" fill="white"/>
</svg>
