<svg width="13" height="10" viewBox="0 0 13 10" fill="none" xmlns="http://www.w3.org/2000/svg">
<path fill-rule="evenodd" clip-rule="evenodd" d="M4.02381 3.75C4.02381 2.36929 5.13244 1.25 6.5 1.25C7.86754 1.25 8.97619 2.36929 8.97619 3.75V4.375H9.59524C10.7919 4.375 11.7619 5.35438 11.7619 6.5625C11.7619 7.77062 10.7919 8.75 9.59524 8.75H9.53333C9.19143 8.75 8.91429 9.02981 8.91429 9.375C8.91429 9.72019 9.19143 10 9.53333 10H9.59524C11.4757 10 13 8.461 13 6.5625C13 4.86206 11.7771 3.44998 10.1707 3.1739C9.89622 1.37633 8.35733 0 6.5 0C4.6427 0 3.10379 1.37633 2.82927 3.1739C1.22293 3.44998 0 4.86206 0 6.5625C0 8.461 1.52436 10 3.40476 10H3.46667C3.80855 10 4.08571 9.72019 4.08571 9.375C4.08571 9.02981 3.80855 8.75 3.46667 8.75H3.40476C2.20814 8.75 1.2381 7.77062 1.2381 6.5625C1.2381 5.35438 2.20814 4.375 3.40476 4.375H4.02381V3.75ZM7.11905 4.375C7.11905 4.02981 6.8419 3.75 6.5 3.75C6.1581 3.75 5.88095 4.02981 5.88095 4.375V7.86613L5.08059 7.05806C4.83884 6.814 4.44688 6.814 4.20512 7.05806C3.96337 7.30213 3.96337 7.69787 4.20512 7.94194L6.06227 9.81694C6.30401 10.061 6.69599 10.061 6.93773 9.81694L8.79487 7.94194C9.03661 7.69787 9.03661 7.30213 8.79487 7.05806C8.55313 6.814 8.16115 6.814 7.91941 7.05806L7.11905 7.86613V4.375Z" fill="#3871C2"/>
</svg>
