<svg width="17" height="20" viewBox="0 0 17 20" fill="none" xmlns="http://www.w3.org/2000/svg">
<path d="M3.64286 1.25V2.5H1.82143C0.815848 2.5 0 3.33984 0 4.375V6.25H17V4.375C17 3.33984 16.1842 2.5 15.1786 2.5H13.3571V1.25C13.3571 0.558594 12.8145 0 12.1429 0C11.4712 0 10.9286 0.558594 10.9286 1.25V2.5H6.07143V1.25C6.07143 0.558594 5.52879 0 4.85714 0C4.18549 0 3.64286 0.558594 3.64286 1.25ZM17 7.5H0V18.125C0 19.1602 0.815848 20 1.82143 20H15.1786C16.1842 20 17 19.1602 17 18.125V7.5ZM8.5 9.6875C9.00469 9.6875 9.41071 10.1055 9.41071 10.625V12.8125H11.5357C12.0404 12.8125 12.4464 13.2305 12.4464 13.75C12.4464 14.2695 12.0404 14.6875 11.5357 14.6875H9.41071V16.875C9.41071 17.3945 9.00469 17.8125 8.5 17.8125C7.99531 17.8125 7.58929 17.3945 7.58929 16.875V14.6875H5.46429C4.9596 14.6875 4.55357 14.2695 4.55357 13.75C4.55357 13.2305 4.9596 12.8125 5.46429 12.8125H7.58929V10.625C7.58929 10.1055 7.99531 9.6875 8.5 9.6875Z" fill="white"/>
</svg>
