<svg width="20" height="13" viewBox="0 0 20 13" fill="none" xmlns="http://www.w3.org/2000/svg">
<path d="M2.22222 0C0.996528 0 0 0.971615 0 2.16667V10.8333C0 12.0284 0.996528 13 2.22222 13H17.7778C19.0035 13 20 12.0284 20 10.8333V2.16667C20 0.971615 19.0035 0 17.7778 0H2.22222ZM3.88889 5.41667H9.44444C9.75 5.41667 10 5.66042 10 5.95833C10 6.25625 9.75 6.5 9.44444 6.5H3.88889C3.58333 6.5 3.33333 6.25625 3.33333 5.95833C3.33333 5.66042 3.58333 5.41667 3.88889 5.41667ZM3.33333 9.20833C3.33333 8.91042 3.58333 8.66667 3.88889 8.66667H16.1111C16.4167 8.66667 16.6667 8.91042 16.6667 9.20833C16.6667 9.50625 16.4167 9.75 16.1111 9.75H3.88889C3.58333 9.75 3.33333 9.50625 3.33333 9.20833ZM13.0556 3.25H15.8333C16.2951 3.25 16.6667 3.61224 16.6667 4.0625V5.6875C16.6667 6.13776 16.2951 6.5 15.8333 6.5H13.0556C12.5938 6.5 12.2222 6.13776 12.2222 5.6875V4.0625C12.2222 3.61224 12.5938 3.25 13.0556 3.25Z" fill="white"/>
</svg>
