<svg width="28" height="25" viewBox="0 0 28 25" fill="none" xmlns="http://www.w3.org/2000/svg">
<path d="M27.4873 13.7399C28.1709 13.0542 28.1709 11.9406 27.4873 11.2549L20.4869 4.23336C19.8033 3.54765 18.6931 3.54765 18.0095 4.23336C17.3258 4.91906 17.3258 6.03264 18.0095 6.71834L22.0237 10.7448H10.5005C9.5325 10.7448 8.75043 11.5292 8.75043 12.5002C8.75043 13.4711 9.5325 14.2556 10.5005 14.2556H22.0237L18.0095 18.282C17.3258 18.9677 17.3258 20.0813 18.0095 20.767C18.6931 21.4527 19.8033 21.4527 20.4869 20.767L27.4873 13.7454V13.7399ZM8.75043 3.72319C9.71844 3.72319 10.5005 2.93875 10.5005 1.9678C10.5005 0.996845 9.71844 0.212402 8.75043 0.212402H5.25026C2.35168 0.212402 0 2.57122 0 5.47859V19.5218C0 22.4291 2.35168 24.7879 5.25026 24.7879H8.75043C9.71844 24.7879 10.5005 24.0035 10.5005 23.0325C10.5005 22.0616 9.71844 21.2771 8.75043 21.2771H5.25026C4.28224 21.2771 3.50017 20.4927 3.50017 19.5218V5.47859C3.50017 4.50764 4.28224 3.72319 5.25026 3.72319H8.75043Z" fill="#0AC282"/>
</svg>
