<svg width="21" height="19" viewBox="0 0 21 19" fill="none" xmlns="http://www.w3.org/2000/svg">
<path d="M20.6155 10.4585C21.1282 9.92835 21.1282 9.06741 20.6155 8.53728L15.3652 3.10871C14.8525 2.57857 14.0198 2.57857 13.5071 3.10871C12.9944 3.63884 12.9944 4.49978 13.5071 5.02991L16.5178 8.14286H7.87538C7.14937 8.14286 6.56282 8.74933 6.56282 9.5C6.56282 10.2507 7.14937 10.8571 7.87538 10.8571H16.5178L13.5071 13.9701C12.9944 14.5002 12.9944 15.3612 13.5071 15.8913C14.0198 16.4214 14.8525 16.4214 15.3652 15.8913L20.6155 10.4627V10.4585ZM6.56282 2.71429C7.28883 2.71429 7.87538 2.10781 7.87538 1.35714C7.87538 0.606473 7.28883 0 6.56282 0H3.93769C1.76376 0 0 1.82366 0 4.07143V14.9286C0 17.1763 1.76376 19 3.93769 19H6.56282C7.28883 19 7.87538 18.3935 7.87538 17.6429C7.87538 16.8922 7.28883 16.2857 6.56282 16.2857H3.93769C3.21168 16.2857 2.62513 15.6792 2.62513 14.9286V4.07143C2.62513 3.32076 3.21168 2.71429 3.93769 2.71429H6.56282Z" fill="white"/>
</svg>
