<svg width="20" height="18" viewBox="0 0 20 18" fill="none" xmlns="http://www.w3.org/2000/svg">
<path d="M19.9948 8.98067C19.9948 9.61336 19.4738 10.109 18.8834 10.109H17.772L17.7963 15.7399C17.7963 15.8348 17.7893 15.9297 17.7789 16.0246V16.594C17.7789 17.3708 17.1572 18 16.3897 18H15.834C15.7958 18 15.7575 18 15.7193 17.9965C15.6707 18 15.6221 18 15.5735 18L14.4447 17.9965H13.6112C12.8436 17.9965 12.2219 17.3673 12.2219 16.5905V15.7469V13.4974C12.2219 12.8752 11.7253 12.3726 11.1105 12.3726H8.88772C8.27297 12.3726 7.77632 12.8752 7.77632 13.4974V15.7469V16.5905C7.77632 17.3673 7.15463 17.9965 6.38707 17.9965H5.55352H4.44559C4.3935 17.9965 4.3414 17.993 4.2893 17.9895C4.24763 17.993 4.20595 17.9965 4.16427 17.9965H3.60857C2.84101 17.9965 2.21932 17.3673 2.21932 16.5905V12.6538C2.21932 12.6221 2.21932 12.587 2.2228 12.5554V10.1054H1.1114C0.486237 10.1054 0 9.61336 0 8.97715C0 8.66081 0.104194 8.37961 0.347312 8.13357L9.24892 0.281195C9.49204 0.0351494 9.76989 0 10.013 0C10.2561 0 10.534 0.0702988 10.7424 0.246046L19.6127 8.13708C19.8906 8.38313 20.0295 8.66432 19.9948 8.98067Z" fill="white"/>
</svg>
