<svg width="9" height="10" viewBox="0 0 9 10" fill="none" xmlns="http://www.w3.org/2000/svg">
<path d="M1.92857 0.625V1.25H0.964286C0.43192 1.25 0 1.66992 0 2.1875V3.125H9V2.1875C9 1.66992 8.56808 1.25 8.03571 1.25H7.07143V0.625C7.07143 0.279297 6.78415 0 6.42857 0C6.07299 0 5.78571 0.279297 5.78571 0.625V1.25H3.21429V0.625C3.21429 0.279297 2.92701 0 2.57143 0C2.21585 0 1.92857 0.279297 1.92857 0.625ZM9 3.75H0V9.0625C0 9.58008 0.43192 10 0.964286 10H8.03571C8.56808 10 9 9.58008 9 9.0625V3.75Z" fill="#3871C2"/>
</svg>
